# xmcd CD database file
#
# Track frame offsets:
#	150
#	28165
#	54434
#	72923
#	98520
#	123661
#	154838
#	184522
#	212225
#	236523
#	267827
#	293124
#
# Disc length: 4362 seconds
#
# Revision: 2
# Processed by: cddbd v1.4PL0 Copyright (c) Steve Scherf et al.
# Submitted via: CDex 1.50Beta3
#
DISCID=a911080c
DTITLE=Ishino Takkyu - Throbbing Disco Cat
DYEAR=1999
DGENRE=Japanese Rock
TTITLE0=Suck Me Disco
TTITLE1=Acid Daze Are Back
TTITLE2=Pescatora
TTITLE3=Tengu Wars
TTITLE4=Neue Welt
TTITLE5=Fuse 1
TTITLE6=Fuse 2
TTITLE7=Mgm On A Guest List
TTITLE8=Sam Jam Seven
TTITLE9=Anna - Letmein Letmeout (Long Version)
TTITLE10=Feeling
TTITLE11=The Guitarist
EXTD=YEAR: 1999
EXTT0=
EXTT1=
EXTT2=
EXTT3=
EXTT4=
EXTT5=
EXTT6=
EXTT7=
EXTT8=
EXTT9=
EXTT10=
EXTT11=
PLAYORDER=
